<svg width="22" height="22" viewBox="0 0 22 22" fill="none" xmlns="http://www.w3.org/2000/svg">
<path d="M16.5002 7.33414C16.5002 5.87545 15.9208 4.4765 14.8893 3.44505C13.8579 2.41361 12.4589 1.83414 11.0002 1.83414C9.54154 1.83414 8.14259 2.41361 7.11114 3.44505C6.07969 4.4765 5.50023 5.87545 5.50023 7.33414C5.50023 13.7508 2.75023 15.5841 2.75023 15.5841H19.2502C19.2502 15.5841 16.5002 13.7508 16.5002 7.33414Z" stroke="white" stroke-width="2.16974" stroke-linecap="round" stroke-linejoin="round"/>
<path d="M12.5866 19.2505C12.4254 19.5283 12.1941 19.7589 11.9158 19.9192C11.6375 20.0795 11.3219 20.1639 11.0007 20.1639C10.6796 20.1639 10.364 20.0795 10.0857 19.9192C9.80738 19.7589 9.57606 19.5283 9.4149 19.2505" stroke="white" stroke-width="2.16974" stroke-linecap="round" stroke-linejoin="round"/>
</svg>
