<svg width="56" height="10" viewBox="0 0 56 10" fill="none" xmlns="http://www.w3.org/2000/svg">
<path d="M4 9C5.65685 9 6.99999 7.20914 6.99999 5C6.99999 2.79086 5.65685 1 4 1C2.34314 1 1 2.79086 1 5C1 7.20914 2.34314 9 4 9Z" stroke="#787878" stroke-width="2"/>
<path d="M28 9C29.6568 9 31 7.20914 31 5C31 2.79086 29.6568 1 28 1C26.3431 1 25 2.79086 25 5C25 7.20914 26.3431 9 28 9Z" stroke="#787878" stroke-width="2"/>
<path d="M52 9C53.6568 9 55 7.20914 55 5C55 2.79086 53.6568 1 52 1C50.3431 1 49 2.79086 49 5C49 7.20914 50.3431 9 52 9Z" stroke="#787878" stroke-width="2"/>
</svg>
