<svg width="77" height="85" viewBox="0 0 77 85" fill="none" xmlns="http://www.w3.org/2000/svg">
<path d="M69.3837 58.0224L54.1463 49.6404L59.8909 40.727C61.2301 38.6455 61.9327 36.3136 61.9348 33.9435V19.8333C61.9348 14.5732 59.4658 9.52852 55.0709 5.80905C50.676 2.08958 44.7153 0 38.5 0C32.2847 0 26.324 2.08958 21.9291 5.80905C17.5343 9.52852 15.0652 14.5732 15.0652 19.8333V33.9435C15.0673 36.3136 15.7699 38.6456 17.1091 40.7272L22.8537 49.6404L7.61633 58.0224C5.27454 59.3054 3.35032 61.065 2.01975 63.1401C0.689188 65.2152 -0.0052339 67.5395 2.97012e-05 69.9005V85H77V69.9005C77.0052 67.5395 76.3108 65.2152 74.9802 63.1401C73.6496 61.065 71.7254 59.3054 69.3837 58.0224ZM70.3043 79.3333H6.69568V69.9005C6.69255 68.4839 7.10923 67.0892 7.90761 65.8442C8.70598 64.5991 9.86055 63.5434 11.2657 62.7736L31.6999 51.5325L22.9872 38.0138C22.1838 36.7648 21.7622 35.3656 21.7609 33.9435V19.8333C21.7609 16.0761 23.5245 12.4728 26.6637 9.81599C29.8029 7.15922 34.0605 5.66667 38.5 5.66667C42.9395 5.66667 47.1972 7.15922 50.3363 9.81599C53.4755 12.4728 55.2391 16.0761 55.2391 19.8333V33.9435C55.2378 35.3656 54.8162 36.7648 54.0128 38.0138L45.3003 51.5325L65.735 62.7736C67.14 63.5434 68.2944 64.5992 69.0927 65.8442C69.8909 67.0893 70.3075 68.4839 70.3043 69.9005V79.3333Z" fill="white"/>
</svg>
