<svg width="15" height="14" viewBox="0 0 15 14" fill="none" xmlns="http://www.w3.org/2000/svg">
<path d="M13.3851 9.55663L10.4456 8.17605L11.5538 6.70798C11.8122 6.36514 11.9477 5.98105 11.9481 5.59069V3.26666C11.9481 2.40029 11.4718 1.5694 10.624 0.956784C9.77613 0.344165 8.62622 0 7.4272 0C6.22818 0 5.07827 0.344165 4.23044 0.956784C3.38261 1.5694 2.9063 2.40029 2.9063 3.26666V5.59069C2.9067 5.98106 3.04224 6.36516 3.30059 6.70801L4.40881 8.17605L1.4693 9.55663C1.01753 9.76794 0.646324 10.0578 0.389639 10.3995C0.132954 10.7413 -0.00100969 11.1241 5.72978e-06 11.513V14H14.8544V11.513C14.8554 11.1241 14.7214 10.7413 14.4648 10.3995C14.2081 10.0578 13.8369 9.76795 13.3851 9.55663ZM13.5627 13.0667H1.29169V11.513C1.29109 11.2797 1.37147 11.05 1.52549 10.8449C1.67951 10.6398 1.90224 10.466 2.17331 10.3392L6.11537 8.4877L4.43457 6.26109C4.27956 6.05538 4.19824 5.82492 4.19799 5.59069V3.26666C4.19799 2.64783 4.53821 2.05433 5.1438 1.61675C5.7494 1.17917 6.57076 0.933333 7.4272 0.933333C8.28364 0.933333 9.10501 1.17917 9.7106 1.61675C10.3162 2.05433 10.6564 2.64783 10.6564 3.26666V5.59069C10.6562 5.82492 10.5748 6.05538 10.4198 6.26109L8.73907 8.4877L12.6812 10.3392C12.9523 10.466 13.175 10.6399 13.329 10.8449C13.483 11.05 13.5633 11.2797 13.5627 11.513V13.0667Z" fill="white"/>
</svg>
