<svg width="16" height="16" viewBox="0 0 16 16" fill="none" xmlns="http://www.w3.org/2000/svg">
<path d="M15.9329 6.00796C15.8564 5.76056 15.7157 5.54006 15.5264 5.37085C15.3371 5.20165 15.1066 5.09034 14.8604 5.04925L10.9968 4.39474L9.20569 0.766786C9.0916 0.535825 8.91868 0.342083 8.70591 0.20682C8.49314 0.0715573 8.24874 0 7.99952 0C7.7503 0 7.5059 0.0715573 7.29313 0.20682C7.08036 0.342083 6.90744 0.535825 6.79335 0.766786L5.00229 4.39474L1.13872 5.04925C0.892744 5.09098 0.662547 5.20253 0.473388 5.37166C0.284229 5.54079 0.143418 5.76097 0.0664042 6.00803C-0.0106095 6.25509 -0.0208496 6.51949 0.0368076 6.77221C0.0944647 7.02494 0.217791 7.25623 0.393255 7.4407L3.14992 10.3374L2.55325 14.3698C2.51497 14.6267 2.54538 14.8895 2.64114 15.1295C2.7369 15.3695 2.8943 15.5773 3.09603 15.7301C3.29776 15.8829 3.536 15.9747 3.78456 15.9955C4.03311 16.0163 4.28235 15.9652 4.50485 15.8478L7.99952 14.0101L11.4943 15.8478C11.7168 15.9649 11.966 16.0158 12.2144 15.9949C12.4629 15.9741 12.701 15.8822 12.9027 15.7295C13.1044 15.5768 13.2617 15.3691 13.3576 15.1292C13.4534 14.8894 13.4839 14.6266 13.4459 14.3698L12.8492 10.3374L15.6059 7.4407C15.7819 7.25659 15.9056 7.02529 15.9633 6.77242C16.021 6.51955 16.0105 6.25497 15.9329 6.00796ZM14.8485 6.65771L11.7129 9.95262L12.3917 14.5394C12.4001 14.5944 12.3937 14.6506 12.3733 14.702C12.3529 14.7535 12.3193 14.798 12.2761 14.8307C12.2329 14.8634 12.1819 14.883 12.1287 14.8873C12.0755 14.8916 12.0222 14.8805 11.9747 14.8552L7.99952 12.7648L4.02432 14.8553C3.9768 14.8806 3.92349 14.8917 3.87028 14.8874C3.81708 14.883 3.76606 14.8634 3.72289 14.8307C3.67971 14.798 3.64606 14.7535 3.62567 14.7021C3.60528 14.6507 3.59894 14.5944 3.60735 14.5395L4.28619 9.95262L1.15055 6.65767C1.11311 6.61824 1.0868 6.56882 1.0745 6.51483C1.06221 6.46085 1.06441 6.40438 1.08086 6.35161C1.0973 6.29884 1.12737 6.25181 1.16775 6.21566C1.20814 6.17952 1.25729 6.15566 1.30982 6.1467L5.70452 5.40223L7.74182 1.27557C7.76618 1.22621 7.80312 1.1848 7.84858 1.15589C7.89404 1.12697 7.94627 1.11168 7.99952 1.11168C8.05277 1.11168 8.105 1.12697 8.15046 1.15589C8.19592 1.1848 8.23286 1.22621 8.25722 1.27557L10.2945 5.40223L14.6892 6.1467C14.7417 6.15566 14.7909 6.17952 14.8313 6.21566C14.8717 6.25181 14.9017 6.29884 14.9182 6.35161C14.9346 6.40438 14.9368 6.46085 14.9245 6.51483C14.9122 6.56882 14.8859 6.61824 14.8485 6.65767L14.8485 6.65771Z" fill="#FAFAFA"/>
</svg>
