<svg width="25" height="23" viewBox="0 0 25 23" fill="none" xmlns="http://www.w3.org/2000/svg">
<path d="M24.8297 3.02996L17.0168 21.5217C16.5234 22.6901 15.102 23.2904 13.8434 22.8614C13.5317 22.7532 13.249 22.5897 13.0129 22.3811C12.7769 22.1725 12.5927 21.9234 12.4719 21.6493L9.99537 16.1639C9.52997 15.1109 8.60738 14.2624 7.42958 13.8042L1.46854 11.526C0.228302 11.0511 -0.33604 9.73437 0.205991 8.58438C0.334199 8.30671 0.523978 8.05407 0.764347 7.84108C1.00472 7.62809 1.2909 7.45899 1.60635 7.34355L21.7075 0.15615C22.9766 -0.298093 24.3848 0.272299 24.8507 1.43148C25.0568 1.94438 25.0489 2.51247 24.831 3.02996H24.8297Z" fill="#D8D8D8"/>
</svg>
